<svg width="200" height="150" viewBox="0 0 220 180" xmlns="http://www.w3.org/2000/svg">
        <defs>
          <linearGradient id="pinkGradient" x1="0%" y1="0%" x2="0%" y2="100%">
            <stop offset="0%" style="stop-color:#ff66b2;stop-opacity:1" />
            <stop offset="100%" style="stop-color:#ff3399;stop-opacity:1" />
          </linearGradient>
          <linearGradient id="blueGradient" x1="0%" y1="0%" x2="0%" y2="100%">
            <stop offset="0%" style="stop-color:#66b3ff;stop-opacity:1" />
            <stop offset="100%" style="stop-color:#3399ff;stop-opacity:1" />
          </linearGradient>
        </defs>

        <!-- Backrest -->
        <rect x="0" y="20" rx="10" ry="10" width="100" height="40" fill="url(#pinkGradient)" />

        <!-- Seat -->
        <rect x="-5" y="80" rx="10" ry="10" width="110" height="30" fill="url(#pinkGradient)" />

        <!-- Legs -->
        <rect x="0" y="110" width="10" height="80" fill="url(#pinkGradient)" />
        <rect x="90" y="110" width="10" height="80" fill="url(#pinkGradient)" />
        <rect x="10" y="110" width="10" height="80" transform="rotate(10 10 110)" fill="url(#pinkGradient)" />
        <rect x="80" y="110" width="10" height="80" transform="rotate(-10 80 110)" fill="url(#pinkGradient)" />


        <!-- blue chair to the right-->
        <rect x="110" y="20" rx="10" ry="10" width="100" height="40" fill="url(#blueGradient)" />
        <rect x="105" y="80" rx="10" ry="10" width="110" height="30" fill="url(#blueGradient)" />
        <rect x="110" y="110" width="10" height="80" fill="url(#blueGradient)" />
        <rect x="200" y="110" width="10" height="80" fill="url(#blueGradient)" />
        <rect x="120" y="110" width="10" height="80" transform="rotate(10 120 110)" fill="url(#blueGradient)" />
        <rect x="190" y="110" width="10" height="80" transform="rotate(-10 190 110)" fill="url(#blueGradient)" />
      </svg>